<svg width="400" height="400" viewBox="0 0 400 400" fill="none" xmlns="http://www.w3.org/2000/svg">
<path d="M253.028 18.1998C127.154 -18.088 44.3947 3.5435 13.1948 50.8746C-11.862 88.8899 0.961648 121.862 33.2191 185.029C65.4766 248.196 37.3086 284.79 27.5168 338.4C16.826 397.211 102.696 410.279 181.462 392.855C260.229 375.431 405.423 299.279 399.844 168.524C396.265 84.5339 321.086 37.8065 253.028 18.1998Z" fill="#263238"/>
<path d="M111.589 36.7291C111.589 37.0172 111.507 37.2988 111.354 37.5378C111.202 37.7768 110.985 37.9624 110.731 38.0709C110.478 38.1794 110.2 38.2058 109.932 38.1469C109.665 38.0879 109.42 37.9461 109.229 37.7398C109.038 37.5334 108.91 37.2718 108.861 36.9883C108.812 36.7049 108.844 36.4124 108.954 36.1484C109.063 35.8844 109.245 35.6608 109.476 35.5061C109.706 35.3515 109.976 35.2728 110.249 35.2802C110.608 35.2899 110.948 35.4468 111.199 35.7175C111.449 35.9882 111.589 36.3512 111.589 36.7291Z" fill="#F0F0F0"/>
<path d="M117.238 37.4536C117.244 37.621 117.201 37.7863 117.117 37.9285C117.033 38.0706 116.911 38.1832 116.766 38.252C116.621 38.3207 116.46 38.3425 116.303 38.3146C116.146 38.2867 116.001 38.2103 115.886 38.0952C115.77 37.98 115.69 37.8313 115.655 37.6679C115.619 37.5045 115.631 37.3338 115.688 37.1775C115.745 37.0211 115.845 36.8862 115.975 36.7898C116.106 36.6935 116.26 36.64 116.419 36.6362C116.63 36.6312 116.835 36.7143 116.988 36.8673C117.142 37.0204 117.231 37.231 117.238 37.4536Z" fill="#FAFAFA"/>
<path d="M332.879 225.561C333.12 225.272 333.459 225.095 333.824 225.067C334.188 225.039 334.548 225.163 334.826 225.413C335.031 225.601 335.178 225.848 335.249 226.124C335.32 226.4 335.313 226.692 335.226 226.964C335.14 227.235 334.98 227.473 334.766 227.649C334.551 227.824 334.292 227.929 334.022 227.949C333.751 227.97 333.481 227.906 333.244 227.765C333.008 227.624 332.817 227.412 332.695 227.157C332.573 226.901 332.525 226.614 332.558 226.33C332.59 226.046 332.702 225.778 332.879 225.561Z" fill="#F0F0F0"/>
<path d="M329.062 221.112C329.203 220.944 329.402 220.84 329.615 220.825C329.827 220.809 330.038 220.882 330.199 221.029C330.279 221.101 330.345 221.189 330.392 221.288C330.44 221.387 330.468 221.495 330.475 221.606C330.483 221.716 330.469 221.827 330.435 221.932C330.402 222.038 330.348 222.134 330.279 222.218C330.138 222.386 329.939 222.49 329.726 222.505C329.514 222.521 329.304 222.448 329.142 222.301C329.062 222.229 328.996 222.141 328.949 222.042C328.901 221.943 328.873 221.835 328.866 221.724C328.858 221.614 328.872 221.503 328.906 221.398C328.939 221.292 328.993 221.196 329.062 221.112Z" fill="#FAFAFA"/>
<path d="M68.7465 356.316C68.9038 356.481 69.0112 356.691 69.055 356.92C69.0988 357.149 69.077 357.387 68.9925 357.603C68.908 357.819 68.7646 358.003 68.5803 358.133C68.3961 358.263 68.1794 358.333 67.9577 358.333C67.736 358.333 67.5193 358.263 67.3351 358.133C67.1508 358.003 67.0074 357.819 66.9229 357.603C66.8384 357.387 66.8166 357.149 66.8604 356.92C66.9042 356.691 67.0116 356.481 67.1689 356.316C67.3797 356.099 67.6628 355.977 67.9577 355.977C68.2526 355.977 68.5357 356.099 68.7465 356.316Z" fill="#FAFAFA"/>
<path d="M79.0846 361.471C79.3436 361.735 79.5226 362.075 79.5987 362.446C79.6748 362.818 79.6447 363.205 79.5122 363.558C79.3797 363.912 79.1508 364.216 78.8543 364.433C78.5578 364.649 78.2071 364.768 77.8465 364.774C77.4859 364.781 77.1315 364.675 76.8282 364.469C76.5249 364.263 76.2862 363.968 76.1424 363.619C75.9985 363.27 75.9559 362.885 76.02 362.511C76.084 362.137 76.2518 361.791 76.5022 361.517C76.6687 361.335 76.8677 361.19 77.0877 361.089C77.3077 360.988 77.5444 360.934 77.7842 360.93C78.0241 360.925 78.2624 360.971 78.4855 361.064C78.7087 361.157 78.9122 361.295 79.0846 361.471Z" fill="#FAFAFA"/>
<path d="M276.119 308.279C276.121 308.662 276.015 309.036 275.815 309.355C275.614 309.674 275.329 309.923 274.994 310.071C274.659 310.218 274.29 310.258 273.934 310.184C273.578 310.111 273.25 309.928 272.993 309.658C272.736 309.388 272.56 309.044 272.489 308.669C272.417 308.294 272.453 307.905 272.592 307.551C272.73 307.198 272.965 306.896 273.267 306.683C273.568 306.47 273.923 306.357 274.286 306.357C274.771 306.357 275.236 306.559 275.579 306.919C275.923 307.279 276.117 307.768 276.119 308.279Z" fill="#FAFAFA"/>
<path d="M270.655 313.536C270.655 313.764 270.591 313.987 270.47 314.177C270.35 314.367 270.179 314.514 269.978 314.601C269.778 314.688 269.558 314.71 269.346 314.665C269.134 314.62 268.939 314.509 268.786 314.347C268.634 314.185 268.531 313.979 268.489 313.755C268.448 313.531 268.471 313.299 268.555 313.089C268.639 312.879 268.781 312.699 268.962 312.574C269.142 312.449 269.355 312.383 269.571 312.384C269.859 312.387 270.135 312.509 270.338 312.725C270.541 312.941 270.655 313.232 270.655 313.536Z" fill="#FAFAFA"/>
<path d="M267.57 306.357C267.57 306.54 267.519 306.72 267.422 306.873C267.325 307.025 267.187 307.144 267.026 307.215C266.865 307.285 266.688 307.303 266.517 307.268C266.346 307.232 266.189 307.143 266.066 307.013C265.943 306.883 265.859 306.718 265.825 306.538C265.791 306.358 265.808 306.171 265.875 306.001C265.941 305.831 266.054 305.686 266.199 305.584C266.344 305.482 266.515 305.428 266.689 305.428C266.923 305.428 267.147 305.526 267.312 305.7C267.477 305.874 267.57 306.11 267.57 306.357Z" fill="#FAFAFA"/>
<path d="M212.838 63.8405C212.84 64.076 212.776 64.3068 212.653 64.5035C212.53 64.7002 212.354 64.854 212.148 64.9454C211.942 65.0368 211.715 65.0617 211.496 65.0169C211.276 64.9721 211.074 64.8596 210.916 64.6937C210.757 64.5278 210.649 64.316 210.605 64.0851C210.56 63.8543 210.582 63.6148 210.667 63.397C210.752 63.1792 210.897 62.993 211.083 62.8619C211.268 62.7309 211.487 62.6609 211.71 62.6609C211.858 62.6597 212.005 62.6893 212.141 62.748C212.278 62.8067 212.403 62.8934 212.508 63.0031C212.612 63.1128 212.696 63.2432 212.752 63.3869C212.809 63.5306 212.839 63.6848 212.838 63.8405Z" fill="#FAFAFA"/>
<path d="M218.1 48.3854L220.629 51.0046L224.111 50.2987C224.185 50.2851 224.261 50.2934 224.331 50.3228C224.401 50.3521 224.461 50.4014 224.506 50.4649C224.551 50.5285 224.578 50.604 224.584 50.6829C224.591 50.7618 224.576 50.841 224.543 50.9118L222.956 54.2554L224.666 57.5247C224.703 57.5945 224.721 57.6739 224.718 57.7538C224.714 57.8337 224.689 57.911 224.646 57.9768C224.603 58.0426 224.543 58.0943 224.473 58.1261C224.404 58.1578 224.327 58.1683 224.252 58.1563L220.726 57.5897L218.294 60.3204C218.243 60.3795 218.178 60.4222 218.105 60.4434C218.032 60.4646 217.955 60.4634 217.883 60.44C217.81 60.4166 217.746 60.3719 217.697 60.3112C217.648 60.2505 217.617 60.1764 217.606 60.0975L217.025 56.3823L213.817 54.7941C213.747 54.761 213.688 54.7074 213.647 54.6399C213.605 54.5723 213.583 54.4937 213.583 54.4133C213.583 54.3329 213.605 54.2542 213.647 54.1867C213.688 54.1192 213.747 54.0656 213.817 54.0325L216.963 52.3142L217.413 48.5991C217.424 48.5209 217.457 48.4479 217.506 48.3884C217.556 48.3289 217.62 48.2855 217.692 48.2631C217.764 48.2408 217.841 48.2404 217.913 48.262C217.985 48.2837 218.05 48.3265 218.1 48.3854Z" fill="#FAFAFA"/>
<path d="M226.72 228.013L227.108 230.883L229.567 232.156C229.621 232.181 229.668 232.223 229.7 232.276C229.733 232.328 229.75 232.39 229.75 232.453C229.75 232.516 229.733 232.577 229.7 232.63C229.668 232.683 229.621 232.725 229.567 232.75L227.108 234.032L226.711 236.892C226.703 236.953 226.678 237.009 226.641 237.056C226.603 237.102 226.554 237.137 226.499 237.155C226.444 237.173 226.385 237.175 226.329 237.16C226.273 237.145 226.222 237.113 226.182 237.069L224.261 234.998L221.564 235.49C221.506 235.5 221.446 235.493 221.392 235.47C221.337 235.447 221.29 235.408 221.255 235.358C221.22 235.307 221.199 235.248 221.195 235.186C221.19 235.124 221.202 235.062 221.229 235.007L222.507 232.453L221.229 229.889C221.204 229.835 221.194 229.774 221.2 229.713C221.206 229.653 221.227 229.595 221.261 229.546C221.296 229.498 221.342 229.46 221.396 229.437C221.449 229.414 221.507 229.407 221.564 229.416L224.27 229.908L226.182 227.837C226.223 227.793 226.275 227.763 226.331 227.748C226.387 227.733 226.447 227.735 226.502 227.753C226.557 227.771 226.607 227.805 226.646 227.851C226.684 227.897 226.71 227.953 226.72 228.013Z" fill="#FAFAFA"/>
<path d="M321.086 133.648L288.864 114.042L313.921 98.7909L317.508 100.974L313.921 107.503L321.086 133.648Z" fill="#8A2BE2"/>
<path d="M317.508 100.974V103.147L314.326 108.961L313.921 107.503L317.508 100.974Z" fill="#8A2BE2"/>
<path opacity="0.1" d="M317.508 100.974V103.147L314.326 108.961L313.921 107.503L317.508 100.974Z" fill="black"/>
<path d="M273.299 104.54C271.845 103.435 269.774 103.481 267.386 104.93C263.04 107.624 259.55 114.107 259.594 119.419C259.594 121.834 260.361 123.599 261.577 124.528L259.63 123.599C258.017 122.782 256.986 120.813 256.986 117.97C256.986 112.518 260.511 105.896 264.988 103.11C267.474 101.577 269.695 101.568 271.158 102.803L273.299 104.54Z" fill="#8A2BE2"/>
<path d="M281.038 110.884L271.836 129.283L263.111 125.234L261.604 124.528C260.388 123.599 259.638 121.834 259.621 119.419C259.577 114.107 263.067 107.624 267.412 104.93C269.756 103.481 271.872 103.435 273.326 104.54L273.625 104.791L281.038 110.884Z" fill="#455A64"/>
<path d="M274.313 124.333L273.652 120.376L260.89 113.289C260.08 115.222 259.648 117.307 259.621 119.419C259.621 121.834 260.388 123.599 261.604 124.528L263.111 125.234L271.836 129.283L274.313 124.333Z" fill="#37474F"/>
<path d="M374.381 174.617C372.148 168.972 369.337 163.6 366 158.596C360.306 150.125 353.062 141.636 349.36 139.091C342.23 134.141 285.021 106.797 285.021 106.797C283.109 105.868 280.614 106.147 277.838 107.856C271.933 111.506 267.191 120.32 267.262 127.546C267.262 130.843 268.32 133.221 269.985 134.503C269.985 134.503 314.247 168.664 329.565 176.298C336.677 179.837 346.31 180.942 354.586 181.165H355.468C360.937 181.258 366.406 180.991 371.843 180.366C372.669 180.264 373.43 179.844 373.981 179.188C374.532 178.532 374.835 177.685 374.831 176.809C374.795 176.058 374.643 175.317 374.381 174.617Z" fill="#FAFAFA"/>
<path d="M277.865 107.847C275.536 109.36 273.524 111.357 271.951 113.717L316.485 132.088L318.521 130.843L279.521 106.992C278.951 107.235 278.397 107.521 277.865 107.847Z" fill="#F0F0F0"/>
<path d="M371.861 180.339C372.575 180.25 373.243 179.924 373.769 179.408C374.295 178.892 374.652 178.212 374.787 177.469C370.883 179.698 350.259 175.295 342.565 171.58C336.501 168.654 303.186 146.716 303.186 146.716L270.964 124.936L267.809 122.986C267.452 124.474 267.271 126.002 267.271 127.537C267.271 130.834 268.329 133.212 269.995 134.494C269.995 134.494 314.256 168.654 329.574 176.289C336.687 179.828 346.32 180.933 354.596 181.156H355.477C360.946 181.248 366.415 180.981 371.852 180.357L371.861 180.339Z" fill="#F0F0F0"/>
<path d="M288.794 108.571C286.943 108.088 284.686 108.571 282.254 110.048C276.084 113.874 271.105 123.097 271.158 130.658C271.081 132.771 271.636 134.857 272.744 136.62L269.986 134.503C268.32 133.221 267.289 130.843 267.262 127.546C267.209 120.32 271.951 111.506 277.838 107.856C280.597 106.147 283.126 105.887 285.021 106.797L288.794 108.571Z" fill="#8A2BE2"/>
<path opacity="0.1" d="M279.521 106.992C278.951 107.235 278.397 107.521 277.865 107.847C275.536 109.36 273.524 111.357 271.951 113.717L276.498 115.574C278.068 113.353 280.021 111.462 282.254 110.001C282.659 109.76 283.056 109.546 283.444 109.351L279.521 106.992Z" fill="black"/>
<path opacity="0.1" d="M271.889 136.017L272.771 136.667C271.672 134.899 271.121 132.816 271.193 130.704C271.197 128.966 271.42 127.236 271.854 125.559L270.973 124.983L267.817 123.032C267.747 123.357 267.676 123.682 267.615 124.017L267.562 124.333C267.518 124.611 267.474 124.89 267.438 125.159C267.403 125.429 267.438 125.549 267.377 125.754C267.315 125.958 267.377 126.153 267.315 126.357C267.315 126.775 267.271 127.184 267.315 127.583C267.315 130.881 268.373 133.258 270.038 134.54L271.889 136.017Z" fill="black"/>
<path d="M270.964 124.927L303.186 144.534L260.22 140.178L249.485 142.36L245.907 140.178L270.964 124.927Z" fill="#8A2BE2"/>
<path d="M245.907 140.178V142.36L249.485 144.534L260.22 142.36L303.186 146.716V144.534L260.22 140.178L249.485 142.36L245.907 140.178Z" fill="#8A2BE2"/>
<path d="M280.685 110.308L316.486 132.088L287.842 88.5278L284.263 77.6331L280.685 75.4504V110.308Z" fill="#8A2BE2"/>
<path opacity="0.15" d="M280.685 110.308L316.486 132.088L287.842 88.5278L284.263 77.6331L280.685 75.4504V110.308Z" fill="black"/>
<path d="M282.721 74.2152L280.685 75.4505L284.263 77.6331L287.842 88.5278L316.486 132.088L318.521 130.843L289.886 87.2833L286.299 76.3886L282.721 74.2152Z" fill="#8A2BE2"/>
<path d="M374.849 176.781C374.805 176.038 374.647 175.307 374.382 174.617C373.086 171.292 371.569 168.067 369.843 164.967C364.043 163.11 358.385 176.289 361.602 181.109C367.639 180.914 371.852 180.357 371.852 180.357C372.682 180.256 373.448 179.835 374.001 179.175C374.555 178.515 374.856 177.662 374.849 176.781Z" fill="#8A2BE2"/>
<path opacity="0.1" d="M286.299 76.3885L284.263 77.6331L287.842 88.5278L289.886 87.2832L286.299 76.3885Z" fill="black"/>
<path opacity="0.05" d="M289.887 87.2832L318.522 130.843L316.486 132.088L287.842 88.5278L289.887 87.2832Z" fill="black"/>
<path opacity="0.15" d="M245.907 140.178L249.485 142.36V144.534L245.907 142.36V140.178Z" fill="black"/>
<path opacity="0.05" d="M260.22 142.36V140.178L303.186 144.534V146.716L260.22 142.36Z" fill="black"/>
<path opacity="0.1" d="M260.22 140.178L249.485 142.36V144.534L260.22 142.36V140.178Z" fill="black"/>
<path opacity="0.1" d="M372.619 180.144L372.971 179.986L373.174 179.865L373.456 179.67L373.65 179.512L373.888 179.271L374.056 179.085L374.249 178.806L374.382 178.592C374.44 178.489 374.49 178.38 374.531 178.267C374.567 178.195 374.6 178.121 374.628 178.044C374.699 177.862 374.752 177.672 374.787 177.478C372.892 178.555 367.066 178.082 360.685 176.874C360.538 178.352 360.847 179.841 361.567 181.119H362.501H362.801L363.682 181.072H363.832L366.564 180.905H366.617L367.437 180.84L370.081 180.608H370.248L371.341 180.487H371.464H371.632H371.711H371.861C372.056 180.467 372.248 180.424 372.434 180.357L372.619 180.144Z" fill="black"/>
<path opacity="0.1" d="M258.263 111.868C257.465 113.811 257.04 115.9 257.012 118.017C257.012 120.878 258.052 122.828 259.656 123.645L261.604 124.574C260.388 123.645 259.638 121.881 259.621 119.466C259.648 117.353 260.079 115.268 260.89 113.336L258.263 111.868Z" fill="black"/>
<path d="M356.041 146.716C356.041 146.716 352.216 145.398 346.143 148.63C342.244 150.707 338.988 153.913 336.757 157.871L345.729 162.227C345.729 162.227 352.462 155.103 360.914 152.986C359.498 150.726 357.865 148.625 356.041 146.716Z" fill="#455A64"/>
<path d="M318.522 158.308C318.508 156.965 318.62 155.624 318.856 154.305C319.253 152.113 318.936 149.8 317.508 148.927C316.08 148.054 314.176 148.983 313.736 151.137C313.485 152.44 313.346 153.765 313.322 155.094L318.522 158.308Z" fill="#E0E0E0"/>
<path d="M313.771 154.723L313.295 154.518C312.856 154.329 312.405 154.171 311.946 154.045C310.194 153.523 308.359 153.378 306.552 153.617C305.172 153.809 303.843 154.288 302.641 155.028C301.439 155.768 300.39 156.754 299.554 157.927L299.184 158.438L299.087 158.568C299.087 158.568 299.087 158.503 299.087 158.568V158.642L298.929 158.939C298.735 159.348 298.488 159.757 298.329 160.175C298.008 161.03 297.746 161.908 297.545 162.803C297.092 164.81 296.763 166.845 296.558 168.896C296.1 173.215 295.853 177.933 295.465 182.948C295.245 185.456 295.042 188.038 294.637 190.676C294.284 193.424 293.631 196.12 292.689 198.71C291.597 201.414 289.964 203.837 287.903 205.815C285.811 207.83 283.373 209.407 280.72 210.459C278.074 211.576 275.29 212.289 272.453 212.577C269.618 212.888 266.76 212.907 263.921 212.633C258.321 211.974 252.827 210.541 247.581 208.369C242.478 206.317 237.49 204.404 232.598 202.797C227.928 201.189 223.161 199.911 218.329 198.97C217.192 198.701 216.046 198.589 214.936 198.413C213.825 198.236 212.715 198.088 211.631 198.032C210.547 197.976 209.48 197.837 208.44 197.809H205.364C201.738 197.871 198.132 198.386 194.621 199.342L192.356 199.964L190.32 200.763L188.442 201.487C187.861 201.766 187.323 202.063 186.803 202.323C185.772 202.88 184.82 203.298 184.053 203.791L182.114 205.054L180.493 206.103L178.034 202.249L179.796 201.134L181.947 199.797C182.828 199.286 183.851 198.868 184.996 198.255C185.569 197.986 186.169 197.67 186.812 197.391L188.883 196.62L191.139 195.803L193.625 195.171C197.448 194.218 201.365 193.744 205.294 193.76L208.581 193.834C209.692 193.899 210.811 194.048 211.957 194.15C213.103 194.252 214.257 194.428 215.429 194.633C216.602 194.837 217.791 194.986 218.955 195.283C223.916 196.358 228.803 197.78 233.585 199.537C238.538 201.301 243.589 203.363 248.63 205.518C253.603 207.705 258.827 209.195 264.168 209.948C266.832 210.259 269.518 210.296 272.188 210.06C274.821 209.856 277.412 209.255 279.883 208.277C282.307 207.365 284.544 205.975 286.475 204.181C288.36 202.458 289.864 200.321 290.882 197.921C291.801 195.5 292.451 192.975 292.821 190.397C293.262 187.843 293.526 185.298 293.79 182.818C294.275 177.849 294.601 173.113 295.157 168.747C295.406 166.64 295.786 164.552 296.293 162.497C296.539 161.51 296.854 160.545 297.237 159.608C297.422 159.153 297.668 158.781 297.871 158.373L298.039 158.076V158.001L298.091 157.918L298.197 157.778L298.603 157.23C299.63 155.865 300.918 154.741 302.384 153.933C303.63 153.258 304.983 152.83 306.376 152.67C308.306 152.453 310.258 152.649 312.114 153.246C312.605 153.388 313.085 153.568 313.55 153.785L314.017 153.998L313.771 154.723Z" fill="#E0E0E0"/>
<path d="M116.419 276.784C110.558 278.075 104.573 279.19 103.965 282.849C103.357 286.508 108.478 293.419 120.129 290.493C131.781 287.567 132.689 282.998 131.922 279.598C131.155 276.199 121.046 275.762 116.419 276.784Z" fill="#263238"/>
<path d="M199.319 265.713C196.119 265.471 191.025 271.555 187.341 276.301C183.657 281.047 180.519 285.803 181.568 287.734C182.617 289.666 186.46 293.985 194.163 288.31C201.866 282.635 204.06 275.112 203.91 271.741C203.761 268.369 202.06 265.927 199.319 265.713Z" fill="#263238"/>
<path d="M127.427 259.295C126.84 260.704 126.531 262.224 126.518 263.763C126.504 265.302 126.786 266.828 127.347 268.248C132.089 280.434 130.141 300.617 129.991 311.632C120.455 319.406 112.893 312.951 112.893 312.951C112.893 312.951 101.912 265.769 101.559 260.01C101.039 251.298 103.806 239.577 108.962 227.753C112.908 218.471 117.3 209.407 122.121 200.595L176.289 204.311C178.537 210.391 180.038 216.749 180.757 223.23C181.841 233.577 182.52 246.663 185.164 255.115C185.629 256.575 186.371 257.92 187.343 259.07C188.316 260.219 189.499 261.149 190.822 261.803C202.104 267.468 213.535 283.787 220.48 292.016C218.347 304.555 208.599 305.168 208.599 305.168C208.599 305.168 170.366 278.019 166.435 273.998C160.486 267.905 154.845 259.351 151.109 246.923C147.372 234.496 145.098 228.413 145.098 228.413C145.098 228.413 130.855 251.187 127.427 259.295Z" fill="#F0F0F0"/>
<path d="M106.151 288.338C106.151 288.338 109.35 301.341 109.5 305.001C109.623 308.066 108.751 310.481 105.014 313.016C99.6463 316.657 91.3704 320.53 86.0294 324.83C82.6186 327.617 83.1122 331.666 88.5942 334.118C91.9609 335.604 98.906 337.285 107.429 334.118C112.073 332.4 117.767 326.976 121.724 326.734C125.681 326.493 132.574 326.214 134.874 322.434C135.641 316.527 133.173 311.902 132.574 307.963C131.569 301.462 131.798 288.394 131.745 284.419C131.745 284.419 128.44 289.657 119.406 290.92C110.372 292.183 106.151 288.338 106.151 288.338Z" fill="#455A64"/>
<path d="M130.811 279.979C131.031 281.985 130.123 284.001 127.779 285.84C123.09 289.499 114.947 290.484 109.588 288.041C107.111 286.917 105.666 285.255 105.287 283.397C105.287 283.397 105.005 281.902 105.684 281.27L105.12 278.688C104.372 279.03 103.73 279.583 103.263 280.286C102.796 280.99 102.524 281.816 102.475 282.673C102.387 284.632 103.357 289.332 109.174 291.663C114.991 293.994 124.659 292.806 129.445 288.96C133.79 285.459 133.94 280.406 133.085 278.363C132.79 277.591 132.278 276.932 131.618 276.476C130.958 276.019 130.181 275.787 129.392 275.809L129.762 278.251C130.053 278.433 130.299 278.684 130.481 278.984C130.663 279.284 130.776 279.625 130.811 279.979Z" fill="#8A2BE2"/>
<path d="M187.394 291.245C187.394 291.245 196.992 298.546 199.451 301.174C201.495 303.366 202.377 305.818 201.213 310.295C199.539 316.796 196.516 322.731 195.282 329.697C194.497 334.146 197.468 336.83 203.064 334.75C206.51 333.477 211.587 330.747 217.042 323.168C220.506 318.357 220.568 311.716 223.344 308.734C226.12 305.753 229.919 299.939 229.223 295.508C226.041 290.577 222.41 289.638 219.457 287.149C214.557 283.007 206.44 273.217 203.875 270.264C203.875 270.264 204.756 276.478 198.825 283.778C192.893 291.078 187.394 291.245 187.394 291.245Z" fill="#455A64"/>
<path d="M200.385 267.635C201.822 268.964 202.43 271.1 201.857 274.137C200.711 280.174 195.291 286.657 189.765 288.626C187.2 289.555 185.067 289.323 183.595 288.227C183.595 288.227 182.423 287.344 182.529 286.369L180.431 284.827C180.102 285.615 179.984 286.482 180.09 287.335C180.195 288.188 180.521 288.994 181.03 289.666C182.22 291.171 185.922 293.985 191.73 291.607C197.538 289.23 203.946 281.521 205.047 275.289C206.043 269.623 202.941 265.769 201.002 264.849C200.284 264.474 199.475 264.336 198.681 264.452C197.888 264.568 197.145 264.933 196.551 265.499L198.552 267.134C198.873 267.05 199.209 267.052 199.529 267.139C199.849 267.227 200.143 267.397 200.385 267.635Z" fill="#8A2BE2"/>
<path d="M131.71 217.927C131.71 217.927 134.848 225.459 138.408 228.691C138.408 228.691 132.089 244.332 128.987 251.911C125.884 259.49 126.537 264.32 126.537 264.32C126.459 262.587 126.761 260.858 127.418 259.267C130.846 251.122 145.045 228.385 145.045 228.385C145.045 228.385 138.805 225.794 131.71 217.927Z" fill="#E0E0E0"/>
<path d="M78.2384 145.825C77.6567 144.617 76.9252 138.552 77.1543 135.199C77.3571 132.339 74.8893 131.122 73.2852 133.444C71.6812 135.766 72.0601 137.735 71.2229 137.289C70.3856 136.843 68.8873 132.571 67.8913 128.661C67.01 125.141 63.7049 119.308 58.0555 125.345C52.406 131.382 55.4114 140.484 57.3328 145.221C59.2541 149.958 64.9564 156.051 68.5347 157.75L78.2384 145.825Z" fill="#455A64"/>
<path d="M80.2125 149.336C81.182 147.543 79.0139 145.62 76.6871 145.444C75.3269 145.415 73.9756 145.682 72.7172 146.226C71.4588 146.771 70.3201 147.583 69.3719 148.611C66.7278 151.314 65.7143 155.41 66.7278 158.503C67.856 162.014 70.5353 161.447 70.5353 161.447L80.2125 149.336Z" fill="#8A2BE2"/>
<path d="M131.402 157.723C128.423 162.552 116.313 173.8 111.395 177.626C106.477 181.453 100.642 184.323 97.1874 184.221C94.2966 184.137 83.0858 178.295 70.5089 161.447C69.4425 160.017 68.4818 157.527 68.7462 155.791C69.5042 151.388 72.0689 148.964 75.4709 148.193C76.2868 148.048 77.1218 148.074 77.928 148.27C78.7342 148.466 79.4957 148.828 80.1685 149.336C83.9848 152.884 93.1508 162.014 96.8437 163.007C101.25 161.846 105.992 155.41 110.17 150.125C114.347 144.84 120.288 134.939 125.585 136.305C136.778 139.184 134.53 155.326 131.402 157.723Z" fill="#F0F0F0"/>
<path d="M122.376 193.955C120.614 195.348 120.614 199.286 123.125 202.082C125.637 204.877 133.005 210.58 144.965 212.298C158.388 214.212 168.982 210.097 174.05 206.447C179.294 202.667 176.412 198.896 176.412 198.896L122.376 193.955Z" fill="#8A2BE2"/>
<path d="M158.422 139.25C174.396 132.278 181.981 112.979 175.365 96.1461C168.748 79.3129 150.435 71.3192 134.462 78.2918C118.488 85.2643 110.903 104.563 117.519 121.396C124.136 138.229 142.449 146.223 158.422 139.25Z" fill="#455A64"/>
<path d="M140.048 147.497C140.665 156.274 135.447 163.834 128.405 164.382C121.363 164.93 117.071 157.88 116.454 149.103C115.837 140.326 120.446 131.651 126.334 133.695C133.393 133.528 139.422 138.72 140.048 147.497Z" fill="#8A2BE2"/>
<path opacity="0.1" d="M140.048 147.497C140.665 156.274 135.447 163.834 128.405 164.382C121.363 164.93 117.071 157.88 116.454 149.103C115.837 140.326 120.446 131.651 126.334 133.695C133.393 133.528 139.422 138.72 140.048 147.497Z" fill="black"/>
<path d="M125.408 133.658C123.223 136.007 120.367 142.37 121.16 151.955C121.715 158.744 124.033 164.958 123.443 172.862C123.029 178.332 119.997 186.794 122.376 193.955C123.628 197.716 132.01 205.184 144.736 207.794C157.463 210.403 174.085 204.255 177.073 197.725C180.175 190.955 181.092 173.41 180.457 164.976C179.823 156.543 177.761 139.37 171.062 132.051C152.448 120.59 137.976 123.59 125.408 133.658Z" fill="#FAFAFA"/>
<path d="M139.501 117.181C146.657 117.181 152.457 111.068 152.457 103.528C152.457 95.9872 146.657 89.8745 139.501 89.8745C132.346 89.8745 126.545 95.9872 126.545 103.528C126.545 111.068 132.346 117.181 139.501 117.181Z" fill="#263238"/>
<path d="M161.888 113.234C161.888 113.234 159.79 123.627 158.953 125.308C158.391 126.36 157.466 127.145 156.37 127.5L156.52 120.19L161.888 113.234Z" fill="#263238"/>
<path d="M159.261 98.345C159.995 98.2551 160.738 98.3431 161.435 98.6023C162.131 98.8614 162.762 99.2849 163.28 99.8404C165.043 101.698 164.047 107.531 161.887 113.234L157.939 113.716L159.261 98.345Z" fill="#263238"/>
<path d="M156.749 113.726C157.542 114.227 158.679 112.621 159.657 111.543C160.636 110.466 163.826 108.989 165.413 112.528C166.999 116.066 164.011 120.887 161.499 121.723C157.163 123.153 156.52 120.227 156.52 120.227L156.141 133.667C156.141 133.667 157.137 136.871 149.46 137.967C141.784 139.063 139.527 136.5 142.048 133.23L142.11 131.243C140.181 131.565 138.225 131.671 136.275 131.559C133.085 131.038 131.084 128.391 130.106 124.76C128.554 118.927 127.964 114.209 129.286 102.738C130.723 90.1624 144.613 90.0231 152.104 95.0014C159.596 99.9797 156.749 113.726 156.749 113.726Z" fill="#995343"/>
<path d="M156.749 115.119C157.155 115.119 158.67 112.481 159.658 111.534C161.015 110.234 159.287 98.5308 159.261 98.345C159.164 97.732 159.393 97.0726 159.261 96.376C159.072 95.5111 158.754 94.6834 158.318 93.924C157.481 92.4194 156.026 91.6485 154.616 90.7568C152.18 89.2151 149.375 88.4415 146.534 88.5277C143.679 88.5277 141.581 89.0943 137.976 89.8745C134.971 90.5339 131.19 91.0726 128.281 90.0788C126.334 89.4194 126.519 92.3451 127.224 94.7971C127.751 96.5091 128.686 98.0503 129.938 99.2738C131.701 101.131 134.953 102.153 137.315 102.274C143.582 102.617 150.421 101.159 151.505 101.001C152.977 100.788 153.382 101.28 154.149 105.385C154.837 108.989 155.409 115.091 156.749 115.119Z" fill="#263238"/>
<path d="M159.252 99.2738L164.047 96.5618C163.894 96.2208 163.677 95.916 163.41 95.6658C163.142 95.4157 162.829 95.2253 162.49 95.1064C162.15 94.9874 161.791 94.9423 161.435 94.9737C161.078 95.0052 160.732 95.1125 160.416 95.2893C159.773 95.6684 159.293 96.2939 159.076 97.0359C158.86 97.778 158.923 98.5794 159.252 99.2738Z" fill="#263238"/>
<path d="M142.11 131.233C142.11 131.233 149.214 129.72 151.699 128.326C153.162 127.528 154.36 126.281 155.136 124.751C154.76 126.282 154.098 127.718 153.189 128.977C151.373 131.419 142.048 133.221 142.048 133.221L142.11 131.233Z" fill="#593027"/>
<path d="M143.371 113.215C143.381 113.51 143.474 113.796 143.637 114.036C143.801 114.276 144.028 114.46 144.29 114.566C144.552 114.671 144.838 114.692 145.111 114.627C145.385 114.562 145.634 114.414 145.828 114.2C146.022 113.987 146.152 113.718 146.202 113.427C146.252 113.136 146.22 112.836 146.109 112.565C145.998 112.293 145.814 112.062 145.579 111.9C145.345 111.738 145.07 111.653 144.79 111.655C144.599 111.658 144.411 111.702 144.236 111.782C144.062 111.863 143.904 111.979 143.772 112.124C143.64 112.269 143.537 112.44 143.468 112.627C143.399 112.814 143.366 113.014 143.371 113.215Z" fill="#263238"/>
<path d="M144.877 107.549L147.927 109.323C148.146 108.883 148.194 108.371 148.061 107.894C147.928 107.417 147.623 107.014 147.213 106.769C147.012 106.653 146.791 106.581 146.563 106.557C146.335 106.534 146.105 106.559 145.887 106.632C145.668 106.705 145.466 106.824 145.293 106.982C145.119 107.139 144.978 107.332 144.877 107.549Z" fill="#263238"/>
<path d="M142.753 122.215L139.501 123.497C139.572 123.727 139.685 123.941 139.836 124.124C139.986 124.308 140.17 124.457 140.377 124.564C140.583 124.67 140.808 124.732 141.038 124.745C141.267 124.758 141.497 124.722 141.713 124.639C142.148 124.452 142.499 124.097 142.692 123.646C142.886 123.195 142.908 122.682 142.753 122.215Z" fill="#593027"/>
<path d="M130.661 108.803L133.446 106.546C133.315 106.348 133.147 106.18 132.952 106.052C132.758 105.925 132.54 105.84 132.314 105.804C132.087 105.767 131.856 105.78 131.634 105.84C131.412 105.901 131.204 106.008 131.023 106.156C130.654 106.466 130.411 106.912 130.344 107.404C130.276 107.896 130.39 108.397 130.661 108.803Z" fill="#263238"/>
<path d="M131.516 112.797C131.526 113.092 131.619 113.377 131.782 113.617C131.945 113.857 132.171 114.041 132.433 114.147C132.695 114.252 132.98 114.274 133.253 114.21C133.527 114.146 133.776 113.998 133.97 113.786C134.165 113.573 134.296 113.305 134.347 113.015C134.398 112.725 134.366 112.425 134.257 112.153C134.148 111.882 133.965 111.65 133.731 111.487C133.498 111.324 133.224 111.237 132.944 111.237C132.753 111.24 132.564 111.283 132.389 111.364C132.214 111.444 132.056 111.56 131.923 111.705C131.79 111.85 131.686 112.021 131.616 112.208C131.547 112.396 131.512 112.596 131.516 112.797Z" fill="#263238"/>
<path d="M139.228 109.992L138.761 119.02L134.283 117.413L139.228 109.992Z" fill="#593027"/>
<path d="M146.438 142.258C140.151 142.258 134.006 140.294 128.78 136.613C123.553 132.933 119.48 127.701 117.074 121.581C114.669 115.46 114.04 108.726 115.267 102.229C116.494 95.7316 119.522 89.7638 123.968 85.0802C128.413 80.3967 134.077 77.2076 140.243 75.9163C146.408 74.6251 152.799 75.2897 158.606 77.826C164.413 80.3624 169.376 84.6566 172.867 90.1656C176.358 95.6745 178.221 102.151 178.219 108.775C178.207 117.653 174.855 126.164 168.897 132.441C162.939 138.718 154.862 142.248 146.438 142.258ZM146.438 76.3142C140.337 76.3142 134.373 78.2207 129.3 81.7927C124.227 85.3647 120.273 90.4417 117.938 96.3817C115.604 102.322 114.993 108.858 116.183 115.164C117.373 121.47 120.311 127.262 124.625 131.808C128.939 136.354 134.436 139.45 140.42 140.705C146.403 141.959 152.606 141.315 158.242 138.855C163.879 136.394 168.697 132.228 172.086 126.882C175.476 121.536 177.285 115.251 177.285 108.822C177.289 104.55 176.495 100.319 174.947 96.3702C173.399 92.4219 171.127 88.8339 168.262 85.8114C165.397 82.7889 161.995 80.391 158.25 78.755C154.506 77.1191 150.491 76.277 146.438 76.277V76.3142Z" fill="#8A2BE2"/>
<path d="M163.836 142.063C154.229 147.915 138.655 147.915 129.04 142.063C122.95 138.348 120.42 134.243 122.059 129.469C127.348 137.531 136.452 141.766 146.438 141.766C156.423 141.766 165.448 137.651 170.719 129.59C172.358 134.363 169.926 138.357 163.836 142.063Z" fill="#8A2BE2"/>
<path d="M131.886 171.543L131.551 175.258C126.801 174.784 119.944 178.1 117.732 183.617C115.811 188.4 115.969 200.679 120.173 204.394C119.697 205.425 119.186 206.586 118.64 207.84C112.391 203.103 111.959 188.475 114.48 182.178C117.3 175.026 125.77 170.93 131.886 171.543Z" fill="#E0E0E0"/>
<path d="M132.644 170.651L131.481 170.521C131.236 170.498 130.993 170.572 130.797 170.729C130.602 170.885 130.468 171.112 130.423 171.366C130.206 172.732 130.206 174.125 130.423 175.49C130.456 175.72 130.56 175.932 130.72 176.091C130.879 176.251 131.085 176.35 131.305 176.373L133.191 176.558L132.644 170.651Z" fill="#8A2BE2"/>
<path d="M136.848 160.908L153.356 165.218C154.554 165.58 155.613 166.331 156.38 167.366C157.148 168.4 157.586 169.664 157.631 170.976V181.295C157.666 181.858 157.57 182.421 157.352 182.936C157.133 183.451 156.799 183.902 156.378 184.249C155.956 184.597 155.461 184.831 154.934 184.932C154.408 185.032 153.866 184.995 153.356 184.825L136.848 180.515C135.65 180.153 134.592 179.401 133.824 178.367C133.056 177.333 132.619 176.069 132.574 174.757V164.438C132.539 163.875 132.634 163.312 132.853 162.797C133.071 162.282 133.405 161.831 133.827 161.483C134.248 161.136 134.743 160.901 135.27 160.801C135.796 160.701 136.338 160.738 136.848 160.908Z" fill="#37474F"/>
<path d="M137.897 165.431C138.617 165.646 139.254 166.096 139.715 166.718C140.176 167.339 140.437 168.098 140.461 168.887C140.483 169.224 140.425 169.562 140.294 169.87C140.163 170.179 139.962 170.449 139.709 170.657C139.456 170.865 139.159 171.004 138.843 171.063C138.527 171.122 138.202 171.099 137.897 170.995C137.18 170.779 136.546 170.33 136.087 169.71C135.627 169.091 135.366 168.335 135.341 167.549C135.321 167.213 135.378 166.876 135.509 166.568C135.64 166.261 135.839 165.991 136.091 165.783C136.342 165.574 136.638 165.434 136.953 165.372C137.267 165.311 137.591 165.331 137.897 165.431Z" fill="#8A2BE2"/>
<path d="M137.897 172.945C138.617 173.16 139.254 173.61 139.715 174.231C140.176 174.853 140.437 175.612 140.462 176.4C140.483 176.738 140.425 177.076 140.294 177.384C140.163 177.693 139.962 177.963 139.709 178.171C139.456 178.379 139.159 178.518 138.843 178.577C138.527 178.636 138.202 178.613 137.897 178.509C137.18 178.293 136.546 177.843 136.087 177.224C135.627 176.605 135.366 175.848 135.341 175.063C135.319 174.726 135.375 174.388 135.505 174.079C135.635 173.771 135.835 173.5 136.087 173.291C136.339 173.082 136.636 172.942 136.951 172.881C137.267 172.821 137.591 172.843 137.897 172.945Z" fill="#8A2BE2"/>
<path d="M174.755 199.481C173.636 200.224 167.757 201.589 164.452 201.645C161.632 201.691 160.671 204.487 163.095 206.02C165.519 207.552 167.405 206.948 167.052 207.877C166.7 208.806 162.645 210.849 158.917 212.298C155.542 213.608 150.104 217.713 156.573 223.304C163.042 228.896 171.644 224.753 176.112 222.236C180.581 219.719 186.001 212.948 187.341 208.899L174.755 199.481Z" fill="#455A64"/>
<path d="M178.007 197.01C176.174 196.082 174.482 198.654 174.526 201.199C174.627 202.681 175.014 204.125 175.664 205.442C176.315 206.76 177.214 207.924 178.307 208.862C181.198 211.453 185.305 212.205 188.24 210.84C191.58 209.28 190.769 206.419 190.769 206.419L178.007 197.01Z" fill="#8A2BE2"/>
<path d="M181.471 140.559C186.477 143.345 198.613 155.475 202.817 160.462C207.021 165.45 210.37 171.534 210.591 175.323C210.776 178.481 206.105 191.205 190.769 206.438C189.465 207.738 187.12 209.01 185.393 208.843C180.986 208.425 178.395 205.871 177.329 202.239C176.891 200.476 177.135 198.603 178.007 197.029C181.127 192.552 189.227 181.732 189.853 177.626C188.301 172.89 180.66 168.404 176.482 165.775C176.482 165.775 165.862 162.645 166.788 150.153C167.713 137.661 178.836 137.391 181.471 140.559Z" fill="#F0F0F0"/>
<path d="M181.471 140.558C180.893 139.977 180.192 139.548 179.426 139.307C178.66 139.067 177.851 139.021 177.064 139.175C171.521 140.456 168.083 146.754 169.432 155.438C170.313 161.122 172.42 163.63 176.483 165.757C171.036 166.555 165.545 162.376 164.373 154.815C163.016 146.131 167.66 137.038 174.632 135.84C176.112 135.686 177.597 136.07 178.841 136.928C180.086 137.786 181.014 139.067 181.471 140.558Z" fill="#8A2BE2"/>
<path d="M65.3798 88.7321L69.6279 93.1531L75.4977 91.9643C75.6229 91.9388 75.7523 91.9509 75.8712 91.9994C75.9902 92.0478 76.0937 92.1305 76.1701 92.2381C76.2464 92.3457 76.2924 92.4738 76.3029 92.6077C76.3134 92.7416 76.2878 92.8759 76.2292 92.9952L73.5852 98.5679L76.4672 104.085C76.5276 104.202 76.5559 104.334 76.5489 104.467C76.5419 104.6 76.4998 104.728 76.4275 104.837C76.3551 104.946 76.2554 105.032 76.1394 105.084C76.0234 105.137 75.8958 105.154 75.7709 105.134L69.8659 104.206L65.7764 108.794C65.6898 108.891 65.5792 108.96 65.4572 108.995C65.3351 109.029 65.2063 109.027 65.0854 108.988C64.9645 108.95 64.8562 108.876 64.7728 108.776C64.6893 108.676 64.634 108.554 64.613 108.422L63.6347 102.218L58.2497 99.5803C58.1367 99.5197 58.0418 99.4273 57.9756 99.3134C57.9093 99.1994 57.8743 99.0684 57.8743 98.9348C57.8743 98.8012 57.9093 98.6702 57.9756 98.5563C58.0418 98.4424 58.1367 98.35 58.2497 98.2893L63.5378 95.4008L64.2781 89.15C64.2998 89.0274 64.3516 88.9129 64.4283 88.8179C64.505 88.7229 64.604 88.6507 64.7153 88.6085C64.8267 88.5662 64.9466 88.5554 65.0632 88.5771C65.1797 88.5988 65.2889 88.6522 65.3798 88.7321Z" fill="#FAFAFA"/>
<path d="M81.2175 99.6732C82.0352 99.6732 82.6982 98.9746 82.6982 98.1128C82.6982 97.251 82.0352 96.5524 81.2175 96.5524C80.3997 96.5524 79.7368 97.251 79.7368 98.1128C79.7368 98.9746 80.3997 99.6732 81.2175 99.6732Z" fill="#FAFAFA"/>
</svg>
